<svg xmlns="http://www.w3.org/2000/svg" viewBox="0 0 64 64" role="img" aria-labelledby="title desc">
  <title id="title">CSTLAB favicon</title>
  <desc id="desc">Dark rounded square with a bold uppercase C</desc>
  <rect width="64" height="64" rx="16" fill="#171513" />
  <path
    d="M42.5 19.5c-2.6-2.4-5.8-3.6-9.7-3.6-4.5 0-8.1 1.5-10.9 4.4-2.8 2.9-4.2 6.8-4.2 11.6 0 4.9 1.4 8.8 4.2 11.7 2.8 2.9 6.5 4.3 11 4.3 3.8 0 7-1.1 9.6-3.3v-6.7c-2.6 2.7-5.6 4-9 4-2.5 0-4.5-.8-6.2-2.5-1.6-1.7-2.4-4.2-2.4-7.4 0-3.2.8-5.7 2.5-7.4 1.6-1.8 3.7-2.7 6.2-2.7 3.3 0 6.2 1.3 8.9 3.9v-6.3z"
    fill="#faf4f2"
  />
  <circle cx="46" cy="18" r="5" fill="#ff5500" />
</svg>
